<svg width="78" height="41" viewBox="0 0 78 41" fill="none" xmlns="http://www.w3.org/2000/svg">
<path d="M8.23604 13.7512H3.86808C3.26533 13.7512 2.77606 13.2612 2.77606 12.6573C2.77606 12.0534 3.26533 11.5634 3.86808 11.5634H8.23604C8.83879 11.5634 9.32806 12.0534 9.32806 12.6573C9.32806 13.2612 8.83879 13.7512 8.23604 13.7512Z" fill="#FFE100"/>
<path d="M8.236 6.09365H1.684C1.08125 6.09365 0.59198 5.60361 0.59198 4.9997C0.59198 4.3958 1.08125 3.90576 1.684 3.90576H8.236C8.83875 3.90576 9.32802 4.3958 9.32802 4.9997C9.32802 5.60361 8.83875 6.09365 8.236 6.09365Z" fill="#FFE100"/>
<path d="M8.23602 21.4086H6.05198C5.44923 21.4086 4.95996 20.9185 4.95996 20.3146C4.95996 19.7107 5.44923 19.2207 6.05198 19.2207H8.23602C8.83878 19.2207 9.32805 19.7107 9.32805 20.3146C9.32805 20.9185 8.83878 21.4086 8.23602 21.4086Z" fill="#FFE100"/>
<path d="M8.23604 12.6572H3.86808C3.26533 12.6572 2.77606 12.1672 2.77606 11.5633C2.77606 10.9594 3.26533 10.4694 3.86808 10.4694H8.23604C8.83879 10.4694 9.32806 10.9594 9.32806 11.5633C9.32806 12.1672 8.83879 12.6572 8.23604 12.6572Z" fill="black"/>
<path d="M8.236 4.99977H1.684C1.08125 4.99977 0.59198 4.50974 0.59198 3.90583C0.59198 3.30193 1.08125 2.81189 1.684 2.81189H8.236C8.83875 2.81189 9.32802 3.30193 9.32802 3.90583C9.32802 4.50974 8.83875 4.99977 8.236 4.99977Z" fill="black"/>
<path d="M8.23602 20.3146H6.05198C5.44923 20.3146 4.95996 19.8246 4.95996 19.2207C4.95996 18.6167 5.44923 18.1267 6.05198 18.1267H8.23602C8.83878 18.1267 9.32805 18.6167 9.32805 19.2207C9.32805 19.8246 8.83878 20.3146 8.23602 20.3146Z" fill="black"/>
<path d="M62.0562 38.9114H17.2841C15.4747 38.9114 14.0081 37.4423 14.0081 35.6296V4.99972C14.0081 3.18712 15.4746 1.7179 17.2841 1.7179H62.0562C63.8656 1.7179 65.3323 3.18699 65.3323 4.99972V35.6296C65.3322 37.4423 63.8656 38.9114 62.0562 38.9114Z" fill="#FFE100"/>
<path d="M62.0562 1.7179H58.7802C60.5896 1.7179 62.0562 3.18699 62.0562 4.99972V35.6296C62.0562 37.4422 60.5897 38.9114 58.7802 38.9114H62.0562C63.8656 38.9114 65.3323 37.4423 65.3323 35.6296V4.99972C65.3322 3.18712 63.8656 1.7179 62.0562 1.7179Z" fill="#FFA800"/>
<path d="M16.1921 1.7179H19.4681C17.6587 1.7179 16.1921 3.18699 16.1921 4.99972V35.6296C16.1921 37.4422 17.6586 38.9114 19.4681 38.9114H16.1921C14.3827 38.9114 12.916 37.4423 12.916 35.6296V4.99972C12.916 3.18712 14.3827 1.7179 16.1921 1.7179Z" fill="white"/>
<path d="M33.2802 21.2678C36.5474 24.4042 41.7007 24.4042 44.9679 21.2678L64.3498 2.66017C63.7591 2.07817 62.9499 1.71826 62.0566 1.71826H16.1925C15.2981 1.71826 14.489 2.07817 13.8982 2.66017L33.2802 21.2678Z" fill="#FDCC00"/>
<path d="M34.0357 20.478C36.8891 23.2172 41.3587 23.2172 44.212 20.478L62.5544 2.86914C62.3928 2.832 62.2258 2.81227 62.0565 2.81227H16.1923C16.022 2.81227 15.855 2.832 15.6933 2.86914L34.0357 20.478ZM39.1244 24.7214C36.7493 24.7214 34.3753 23.8341 32.5244 22.0576L13.1425 3.45114C12.9284 3.24545 12.8073 2.96328 12.8061 2.66677C12.8039 2.37142 12.9219 2.08695 13.1326 1.88023C13.9559 1.0696 15.0425 0.62439 16.1923 0.62439H62.0565C63.2064 0.62439 64.2929 1.0696 65.1152 1.88023C65.3259 2.0881 65.4438 2.37142 65.4417 2.6678C65.4395 2.96315 65.3183 3.24545 65.1053 3.45102L45.7234 22.0576C43.8735 23.8343 41.4984 24.7214 39.1244 24.7214Z" fill="black"/>
<path d="M15.6934 37.7598C15.8551 37.7981 16.0221 37.8178 16.1914 37.8178H62.0566C62.2258 37.8178 62.3929 37.7981 62.5545 37.7598L45.9604 21.8301L45.7235 22.0575C42.0227 25.6106 36.2242 25.6106 32.5245 22.0575L32.2875 21.8301L15.6934 37.7598ZM62.0566 40.0056H16.1914C15.0426 40.0056 13.9561 39.5592 13.1327 38.7487C12.922 38.542 12.804 38.2575 12.8051 37.9622C12.8072 37.6668 12.9284 37.3835 13.1424 37.179L31.5318 19.5251C31.9544 19.1192 32.6205 19.1192 33.0432 19.5251L34.0358 20.4791C36.8882 23.2172 41.3587 23.216 44.2121 20.4779L45.2048 19.5251C45.6273 19.1192 46.2935 19.1192 46.7161 19.5251L65.1054 37.179C65.3184 37.3835 65.4396 37.6658 65.4417 37.9622C65.4439 38.2575 65.326 38.5408 65.1153 38.7487C64.2918 39.5593 63.2065 40.0056 62.0566 40.0056Z" fill="black"/>
<path d="M14.008 21.4086C14.008 22.0125 13.5187 22.5026 12.916 22.5026C12.3132 22.5026 11.824 22.0125 11.824 21.4086C11.824 20.8047 12.3132 20.3147 12.916 20.3147C13.5187 20.3147 14.008 20.8047 14.008 21.4086Z" fill="black"/>
<path d="M62.0562 40.0053H16.1921C13.7831 40.0053 11.8241 38.0429 11.8241 35.6295V25.7842C11.8241 25.1803 12.3134 24.6902 12.9161 24.6902C13.5189 24.6902 14.0081 25.1803 14.0081 25.7842V35.6295C14.0081 36.8362 14.9877 37.8174 16.1922 37.8174H62.0563C63.2608 37.8174 64.2404 36.8362 64.2404 35.6295V4.99966C64.2404 3.79301 63.2608 2.81178 62.0563 2.81178H16.1921C14.9876 2.81178 14.008 3.79301 14.008 4.99966V17.0329C14.008 17.6368 13.5187 18.1268 12.916 18.1268C12.3132 18.1268 11.824 17.6368 11.824 17.0329V4.99966C11.824 2.58648 13.783 0.624023 16.1919 0.624023H62.0561C64.465 0.624023 66.424 2.58648 66.424 4.99966V35.6295C66.4241 38.0429 64.4651 40.0053 62.0562 40.0053Z" fill="black"/>
</svg>
